<?xml version="1.0" encoding="UTF-8"?>
<svg width="164px" height="41px" viewBox="0 0 164 41" version="1.1" xmlns="http://www.w3.org/2000/svg" xmlns:xlink="http://www.w3.org/1999/xlink">
    <title>869663E1-91A8-4206-88FD-C0D4397BAC75</title>
    <defs>
        <polygon id="path-1" points="0.220448214 0.18864881 34.9831133 0.18864881 34.9831133 30.5952982 0.220448214 30.5952982"></polygon>
        <polygon id="path-3" points="0 40.0792083 163.222464 40.0792083 163.222464 0.244047619 0 0.244047619"></polygon>
    </defs>
    <g id="Home" stroke="none" stroke-width="1" fill="none" fill-rule="evenodd">
        <g id="010-Home" transform="translate(-116.000000, -40.000000)">
            <g id="organisms-/-navigation-/-menu1440Vertical-Sobre-nosotros">
                <g id="icon/logo_hiemesa" transform="translate(116.000000, 40.000000)">
                    <g id="Group-26">
                        <path d="M34.7634851,36.3269274 C34.2731935,36.4753083 33.7770446,36.6163679 33.2760149,36.750594 C17.6986994,40.9245405 2.97481845,36.4879988 0.390354167,26.8400643 C-1.34409226,20.3674333 2.82497321,13.1946298 10.4612232,7.91392738 L10.4612232,33.5972548 L22.4293185,33.5972548 L22.4293185,24.8659631 L34.7634851,24.8659631 L34.7634851,36.3269274" id="Fill-1" fill="#FFFFFF"></path>
                        <g id="Group-5" transform="translate(22.208333, 0.055399)">
                            <mask id="mask-2" fill="white">
                                <use xlink:href="#path-1"></use>
                            </mask>
                            <g id="Clip-4"></g>
                            <path d="M0.222400595,2.17766131 C0.680233929,2.03123274 1.21079345,1.89090536 1.70694226,1.75863155 C17.2845018,-2.41604702 32.0083827,2.02122679 34.592847,11.6694054 C36.3272935,18.1417923 32.1579839,25.3145958 24.5217339,30.5952982 L24.5217339,4.91319107 L12.5536387,4.91319107 L12.5536387,13.6447268 L0.220448214,13.6447268 L0.222400595,2.17766131" id="Fill-3" fill="#FFFFFF" mask="url(#mask-2)"></path>
                        </g>
                        <polygon id="Fill-6" fill="#FFFFFF" points="82.8981929 29.3795506 82.8981929 2.24316369 77.6055321 2.24316369 77.6055321 13.3363482 68.4161631 13.3363482 68.4161631 2.24316369 63.1235024 2.24316369 63.1235024 29.3795506 68.4161631 29.3795506 68.4161631 18.0198661 77.6055321 18.0198661 77.6055321 29.3795506"></polygon>
                        <mask id="mask-4" fill="white">
                            <use xlink:href="#path-3"></use>
                        </mask>
                        <g id="Clip-9"></g>
                        <path d="M86.366744,29.3796726 L91.3162738,29.3796726 L91.3162738,9.52420238 L86.366744,9.52420238 L86.366744,29.3796726 Z M86.289869,6.12657143 L91.3543452,6.12657143 L91.3543452,2.09075595 L86.289869,2.09075595 L86.289869,6.12657143 Z" id="Fill-8" fill="#FFFFFF" mask="url(#mask-4)"></path>
                        <path d="M109.357811,29.3843095 L109.357811,16.307506 C109.353174,13.9802679 108.638603,12.2302024 107.215073,11.0570655 C105.791543,9.88417262 103.686389,9.29650595 100.898877,9.29528571 C99.2705911,9.27625 97.9049006,9.4663631 96.8015613,9.86660119 C95.698222,10.2661071 94.6761506,10.9892202 93.7355911,12.0369167 L96.8962518,15.1243631 C97.3858113,14.5388929 97.9107577,14.1171786 98.4727994,13.8606845 C99.034353,13.6034583 99.7796744,13.4780179 100.708276,13.483875 C102.013686,13.4780179 102.959859,13.7276786 103.545329,14.2326131 C104.131043,14.7375476 104.418287,15.5314345 104.408282,16.6130536 L104.408282,17.6055952 L99.7164661,17.6055952 C97.4172935,17.6473274 95.7111565,18.2105893 94.5978113,19.2951369 C93.4844661,20.3796845 92.9302339,21.7339048 92.9362853,23.3575536 C92.9377994,24.2419821 93.0773946,25.0673512 93.3546327,25.8319524 C93.632603,26.5975298 94.0389423,27.2603631 94.5734065,27.8204524 C95.1603411,28.4086071 95.8714958,28.8476488 96.7061387,29.1370893 C97.5407815,29.4265298 98.5191685,29.571006 99.6405673,29.5703308 C100.761966,29.5736905 101.694716,29.4233571 102.438817,29.1178095 C103.183407,28.8122619 103.877722,28.3288036 104.522496,27.6659702 L104.522496,29.3843095 L109.357811,29.3843095 Z M104.408282,22.0609286 C104.410966,22.6686071 104.357276,23.1789107 104.245746,23.5913512 C104.134948,24.0042798 103.947032,24.3325238 103.682972,24.5785238 C103.255401,24.9860833 102.795859,25.250631 102.305811,25.3714345 C101.81552,25.4929702 101.232002,25.5466607 100.55599,25.5339702 C99.5856565,25.5246964 98.8657161,25.3150595 98.3961685,24.9048155 C97.9271089,24.4943274 97.6933113,23.9410714 97.6952516,23.2448036 C97.6994125,22.5329167 97.9397994,21.981125 98.4152042,21.5896726 C98.891097,21.1974881 99.5795554,20.9985893 100.479359,20.9932202 L104.408282,20.9932202 L104.408282,22.0609286 L104.408282,22.0609286 Z" id="Fill-10" fill="#FFFFFF" mask="url(#mask-4)"></path>
                        <path d="M128.737901,29.3795506 L128.737901,16.6856577 C128.754008,15.5998899 128.617586,14.5885565 128.328877,13.6511696 C128.040169,12.7137827 127.503508,11.8461935 126.719871,11.0471815 C126.165395,10.4912411 125.494508,10.0607411 124.706235,9.75714583 C123.918449,9.4530625 123.027431,9.2993125 122.033669,9.29516369 C121.107508,9.29516369 120.213806,9.46648512 119.35427,9.80961607 C118.494735,10.1520149 117.735502,10.6664673 117.076086,11.3512649 L117.076086,9.52408036 L112.240526,9.52408036 L112.240526,29.3795506 L117.190056,29.3795506 L117.190056,17.3746042 C117.230568,16.0381994 117.588342,15.0954435 118.262645,14.5463363 C118.937437,13.9977173 119.686175,13.7324375 120.508615,13.750497 C121.329348,13.7324375 122.071252,13.9977173 122.734574,14.5463363 C123.398139,15.0949554 123.749324,16.0369792 123.788371,17.3719196 L123.788371,29.3795506 L128.737901,29.3795506" id="Fill-11" fill="#FFFFFF" mask="url(#mask-4)"></path>
                        <path d="M146.525141,23.1299792 C146.524409,21.443122 146.030945,20.0996399 145.045236,19.0995327 C144.058796,18.0999137 142.584748,17.5002887 140.622605,17.2999256 L137.497576,16.9951101 C136.644629,16.9018839 136.082588,16.6876101 135.810718,16.3513125 C135.539338,16.0147708 135.415361,15.656753 135.439278,15.277503 C135.433421,14.7637827 135.654772,14.3220565 136.10626,13.9513482 C136.557504,13.5806399 137.275248,13.386622 138.259736,13.3690506 C139.130498,13.3605089 139.970754,13.4544673 140.779772,13.6504375 C141.588302,13.8471399 142.285302,14.1983244 142.87004,14.7054554 L145.915998,11.6180089 C144.95982,10.7382173 143.844522,10.127122 142.569861,9.78521131 C141.294713,9.44354464 139.883385,9.28027679 138.335391,9.29516369 C136.969701,9.29711607 135.708707,9.53896726 134.554361,10.0204732 C133.399284,10.5017351 132.469463,11.2124018 131.763677,12.1510089 C131.057891,13.0903482 130.695236,14.2468899 130.675224,15.6213661 C130.692552,17.4324435 131.210421,18.7739732 132.228343,19.6461994 C133.246266,20.5179375 134.65979,21.0309256 136.468183,21.1839435 L139.593213,21.4887589 C140.364159,21.5700268 140.909361,21.770878 141.227599,22.0905804 C141.546082,22.4093065 141.699832,22.8197946 141.689582,23.3205804 C141.650778,24.0580923 141.280802,24.5871875 140.579653,24.9095744 C139.878748,25.2309851 139.079492,25.3888839 138.183105,25.3815625 C137.398248,25.4064554 136.529195,25.2995625 135.577165,25.0618601 C134.625623,24.8241577 133.72826,24.307753 132.885564,23.5119137 L129.64632,26.752622 C130.904141,27.9706637 132.237617,28.7611339 133.647724,29.1223244 C135.058076,29.4844911 136.54457,29.6462946 138.107207,29.6077351 C140.508391,29.6118839 142.496891,29.0808363 144.073439,28.013128 C145.65023,26.9454196 146.467302,25.317622 146.525141,23.1299792" id="Fill-12" fill="#FFFFFF" mask="url(#mask-4)"></path>
                        <path d="M163.222489,29.3843095 L163.222489,16.307506 C163.217608,13.9802679 162.50328,12.2302024 161.079751,11.0570655 C159.656221,9.88417262 157.551066,9.29650595 154.763554,9.29528571 C153.135268,9.27625 151.768846,9.4663631 150.666239,9.86660119 C149.562899,10.2661071 148.540828,10.9892202 147.600024,12.0369167 L150.760197,15.1243631 C151.249757,14.5388929 151.775435,14.1171786 152.337477,13.8606845 C152.89903,13.6034583 153.644108,13.4780179 154.572953,13.483875 C155.878364,13.4780179 156.823804,13.7276786 157.409274,14.2326131 C157.995721,14.7375476 158.282965,15.5314345 158.272227,16.6130536 L158.272227,17.6055952 L153.581143,17.6055952 C151.281971,17.6473274 149.575834,18.2105893 148.462489,19.2951369 C147.349143,20.3796845 146.794911,21.7339048 146.800963,23.3575536 C146.802477,24.2419821 146.942072,25.0673512 147.21931,25.8319524 C147.49728,26.5975298 147.903132,27.2603631 148.438084,27.8204524 C149.025018,28.4086071 149.735441,28.8476488 150.570816,29.1370893 C151.405459,29.4265298 152.383114,29.571006 153.505245,29.5703308 C154.625911,29.5736905 155.558661,29.4233571 156.303251,29.1178095 C157.048084,28.8122619 157.742399,28.3288036 158.386441,27.6659702 L158.386441,29.3843095 L163.222489,29.3843095 Z M158.272227,22.0609286 C158.275399,22.6686071 158.221953,23.1789107 158.110423,23.5913512 C157.998893,24.0042798 157.811709,24.3325238 157.547649,24.5785238 C157.119346,24.9860833 156.660536,25.250631 156.169757,25.3714345 C155.679465,25.4929702 155.096679,25.5466607 154.420667,25.5339702 C153.450334,25.5246964 152.730393,25.3150595 152.260846,24.9048155 C151.791054,24.4943274 151.557989,23.9410714 151.559929,23.2448036 C151.56409,22.5329167 151.803745,21.981125 152.279882,21.5896726 C152.755774,21.1974881 153.444233,20.9985893 154.344768,20.9932202 L158.272227,20.9932202 L158.272227,22.0609286 L158.272227,22.0609286 Z" id="Fill-13" fill="#FFFFFF" mask="url(#mask-4)"></path>
                        <path d="M66.7453887,36.4276214 L66.7453887,35.5419726 L64.8740315,35.5419726 L64.8740315,35.9085321 L66.3331923,35.9085321 L66.3331923,36.3973595 C66.3336804,36.6277405 66.3087875,36.8278595 66.2572935,36.9989369 C66.2062875,37.1697702 66.121603,37.3281571 66.003972,37.4745857 C65.860472,37.6471274 65.6898827,37.7772048 65.4936685,37.8672583 C65.2969661,37.9558476 65.0902577,38.0009964 64.8740315,38.0017286 C64.6778173,38.0017286 64.4911208,37.9653655 64.3151625,37.8948357 C64.1392042,37.8235738 63.9815494,37.7196095 63.8424423,37.5812345 C63.7150494,37.45555 63.620847,37.3132702 63.5605673,37.153419 C63.5000435,36.9935679 63.461728,36.7910083 63.4451327,36.5450083 C63.4282935,36.2999845 63.4202399,35.9856512 63.4221923,35.6029845 C63.4202399,35.2203179 63.4282935,34.9059845 63.4451327,34.6602286 C63.461728,34.4152048 63.5000435,34.2124012 63.5605673,34.05255 C63.620847,33.8926988 63.7150494,33.7496869 63.8424423,33.6242464 C63.9815494,33.4863595 64.1392042,33.3823952 64.3151625,33.3111333 C64.4911208,33.2398714 64.6778173,33.2044845 64.8740315,33.2044845 C65.2447399,33.2079012 65.5568768,33.3172345 65.8106863,33.5315083 C66.0640077,33.7462702 66.2331327,34.0444964 66.3178173,34.426675 L66.7300137,34.426675 C66.6414244,33.9424845 66.4303232,33.5583536 66.0967101,33.27355 C65.763097,32.9897226 65.3555375,32.8437821 64.8740315,32.837925 C64.6121685,32.8384131 64.3656804,32.8862464 64.1338351,32.981425 C63.9017458,33.0768476 63.6955256,33.2152226 63.5141982,33.3950857 C63.3516625,33.555669 63.2340315,33.729431 63.1630137,33.9149071 C63.0910196,34.1008714 63.046847,34.3273476 63.0307399,34.5943357 C63.0139006,34.8615679 63.0073113,35.1973774 63.0097518,35.6029845 C63.0073113,36.0059071 63.0139006,36.3409845 63.0307399,36.6082167 C63.046847,36.8754488 63.0910196,37.1024131 63.1630137,37.2891095 C63.2340315,37.475806 63.3516625,37.6498119 63.5141982,37.8108833 C63.6955256,37.9907464 63.9017458,38.1286333 64.1338351,38.2238119 C64.3656804,38.3192345 64.6121685,38.367556 64.8740315,38.3682881 C65.1512696,38.3668238 65.4131327,38.3126452 65.6596208,38.2042881 C65.9061089,38.0954429 66.1201387,37.9419369 66.3021982,37.7418179 C66.4647339,37.5724488 66.5794363,37.3825798 66.6467935,37.1709905 C66.7146387,36.9594012 66.7473411,36.7116929 66.7453887,36.4276214" id="Fill-14" fill="#FFFFFF" mask="url(#mask-4)"></path>
                        <path d="M74.2318667,35.228347 L74.5139857,34.9454958 C74.3829321,34.8139542 74.2467536,34.7219482 74.105694,34.6702101 C73.9646345,34.6179839 73.8055155,34.5923589 73.6283369,34.5943113 C73.4060095,34.5950435 73.1993012,34.6414125 73.0065036,34.7326863 C72.8144381,34.8246923 72.6626405,34.956478 72.5511107,35.1290196 L72.5511107,34.6401923 L72.1616107,34.6401923 L72.1616107,38.3226268 L72.5511107,38.3226268 L72.5511107,36.053472 C72.552575,35.7501208 72.6377476,35.4902101 72.8063845,35.2752042 C72.9750214,35.0604423 73.2180929,34.9484244 73.536331,34.9381744 C73.6852,34.936222 73.8116167,34.9569661 73.915581,34.9999185 C74.0197893,35.043603 74.1252179,35.1195018 74.2318667,35.228347" id="Fill-15" fill="#FFFFFF" mask="url(#mask-4)"></path>
                        <path d="M81.7553911,38.3225536 L82.1448911,38.3225536 L82.1448911,34.640119 L81.7553911,34.640119 L81.7553911,36.9244048 C81.7534387,37.2777857 81.6633851,37.5491667 81.4854744,37.7383036 C81.3068315,37.9269524 81.0503375,38.022375 80.7164804,38.0243274 C80.3833554,38.0231071 80.1310101,37.9284167 79.9592006,37.7409881 C79.7878792,37.5530714 79.7012423,37.2809583 79.7005101,36.9244048 L79.7005101,34.640119 L79.3110101,34.640119 L79.3110101,36.9929821 C79.3124744,37.4300714 79.4393792,37.77125 79.6931887,38.017006 C79.9382125,38.252756 80.2647482,38.3696548 80.6708435,38.3682041 C81.1201351,38.3682041 81.4813256,38.2078512 81.7553911,37.8866845 L81.7553911,38.3225536" id="Fill-16" fill="#FFFFFF" mask="url(#mask-4)"></path>
                        <path d="M90.5465964,36.4813607 C90.5500131,36.185819 90.5175548,35.898575 90.4499536,35.6210929 C90.3821083,35.3431226 90.2559357,35.1081048 90.0724119,34.9153071 C89.975769,34.8186643 89.8500845,34.7408131 89.6965786,34.6829738 C89.5425845,34.6253786 89.3673583,34.5958488 89.1713881,34.5943845 C88.9624833,34.5897476 88.7691976,34.622694 88.5905548,34.6937119 C88.412644,34.7649738 88.2420548,34.9053012 88.0787869,35.114206 L88.0787869,34.6402655 L87.6892869,34.6402655 L87.6892869,40.0793548 L88.0787869,40.0793548 L88.0787869,37.8485155 C88.2420548,38.0579083 88.412644,38.1977476 88.5905548,38.2687655 C88.7691976,38.3400274 88.9624833,38.3734619 89.1713881,38.3680929 C89.3673583,38.3668726 89.5425845,38.3373429 89.6965786,38.2795036 C89.8500845,38.2219083 89.975769,38.1445452 90.0724119,38.0474143 C90.2559357,37.8543726 90.3821083,37.6195988 90.4499536,37.3413845 C90.5175548,37.0641464 90.5500131,36.7773905 90.5465964,36.4813607 M90.1563643,36.4813607 C90.1605131,36.7412714 90.1375726,36.9877595 90.088031,37.220581 C90.0375131,37.4543786 89.9374536,37.6457119 89.7878524,37.7940929 C89.6380071,37.943206 89.4144595,38.0198369 89.1176976,38.0244738 C88.8214238,38.0198369 88.5978762,37.943206 88.448031,37.7940929 C88.2976976,37.6457119 88.1976381,37.4543786 88.1478524,37.220581 C88.0983107,36.9877595 88.0756143,36.7412714 88.0787869,36.4813607 C88.0756143,36.2221821 88.0983107,35.9749619 88.1478524,35.7421405 C88.1976381,35.5083429 88.2976976,35.3170095 88.448031,35.1686286 C88.5978762,35.0202476 88.8214238,34.9428845 89.1176976,34.9382476 C89.4144595,34.9428845 89.6380071,35.0202476 89.7878524,35.1686286 C89.9374536,35.3170095 90.0375131,35.5083429 90.088031,35.7421405 C90.1375726,35.9749619 90.1605131,36.2221821 90.1563643,36.4813607" id="Fill-17" fill="#FFFFFF" mask="url(#mask-4)"></path>
                        <path d="M98.6273304,36.4813607 C98.6326994,36.2133964 98.605122,35.949581 98.5448423,35.6889381 C98.4835863,35.4285393 98.3586339,35.1988905 98.169497,34.9992595 C98.0357589,34.8657655 97.8846935,34.7642417 97.7148363,34.6966405 C97.5454673,34.6287952 97.3555982,34.5943845 97.1459613,34.5943845 C96.7315685,34.5958488 96.3906339,34.7308071 96.1219375,34.9992595 C95.9325565,35.1988905 95.8076042,35.4285393 95.7465923,35.6889381 C95.6860685,35.949581 95.6584911,36.2133964 95.6638601,36.4813607 C95.6584911,36.749325 95.6860685,37.0138726 95.7465923,37.2737833 C95.8076042,37.5341821 95.9325565,37.763831 96.1219375,37.9632179 C96.3906339,38.2319143 96.7315685,38.3668726 97.1459613,38.3680929 C97.3555982,38.3680929 97.5454673,38.3339262 97.7148363,38.266081 C97.8846935,38.1984798 98.0357589,38.096956 98.169497,37.9632179 C98.3586339,37.763831 98.4835863,37.5341821 98.5448423,37.2737833 C98.605122,37.0138726 98.6326994,36.749325 98.6273304,36.4813607 M98.2378304,36.4813607 C98.2431994,36.7010036 98.2270923,36.9211345 98.1882887,37.1422417 C98.1499732,37.3635929 98.0572351,37.5529738 97.9095863,37.7116048 C97.8061101,37.8148369 97.6906756,37.8929321 97.5623065,37.9451583 C97.4341815,37.9976286 97.2950744,38.0244738 97.1459613,38.0244738 C96.9961161,38.0244738 96.8579851,37.9976286 96.7296161,37.9451583 C96.6014911,37.8929321 96.4853244,37.8148369 96.3818482,37.7116048 C96.2346875,37.5529738 96.1414613,37.3635929 96.1031458,37.1422417 C96.0648304,36.9211345 96.0482351,36.7010036 96.0536042,36.4813607 C96.0482351,36.26245 96.0648304,36.0415869 96.1031458,35.8204798 C96.1414613,35.5996167 96.2346875,35.4095036 96.3818482,35.2518488 C96.4853244,35.1483726 96.6014911,35.0705214 96.7296161,35.017319 C96.8579851,34.9650929 96.9961161,34.9382476 97.1459613,34.9382476 C97.2950744,34.9382476 97.4341815,34.9650929 97.5623065,35.017319 C97.6906756,35.0705214 97.8061101,35.1483726 97.9095863,35.2518488 C98.0572351,35.4095036 98.1499732,35.5996167 98.1882887,35.8204798 C98.2270923,36.0415869 98.2431994,36.26245 98.2378304,36.4813607" id="Fill-18" fill="#FFFFFF" mask="url(#mask-4)"></path>
                        <polygon id="Fill-19" fill="#FFFFFF" mask="url(#mask-4)" points="113.325001 38.3219679 113.736709 38.3219679 113.736709 32.8840988 113.325001 32.8840988 113.325001 35.3968131 110.490632 35.3968131 110.490632 32.8840988 110.078923 32.8840988 110.078923 38.3219679 110.490632 38.3219679 110.490632 35.7628845 113.325001 35.7628845"></polygon>
                        <path d="M119.395417,38.3220655 L119.784185,38.3220655 L119.784185,34.6408512 L119.395417,34.6408512 L119.395417,38.3220655 Z M119.350268,33.3649702 L119.830554,33.3649702 L119.830554,32.8834643 L119.350268,32.8834643 L119.350268,33.3649702 Z" id="Fill-20" fill="#FFFFFF" mask="url(#mask-4)"></path>
                        <path d="M125.520011,36.5652399 L128.079095,36.5652399 L128.079095,36.3900137 C128.07519,35.8206506 127.944868,35.3801446 127.688374,35.0677637 C127.431636,34.756847 127.07069,34.5984601 126.604559,34.5943113 C126.13916,34.5984601 125.77797,34.7644125 125.520743,35.0911923 C125.264249,35.417728 125.133928,35.8809304 125.130511,36.4812875 C125.131976,37.0984839 125.266202,37.5665673 125.532214,37.8860256 C125.798714,38.205728 126.186749,38.3667994 126.696565,38.3682637 C126.995279,38.3682637 127.246404,38.3204304 127.44994,38.2259839 C127.652743,38.1312935 127.844809,37.9902339 128.025404,37.8028054 L127.735232,37.5738887 C127.582946,37.7295911 127.429196,37.8423411 127.272761,37.9128708 C127.116815,37.9834006 126.932315,38.0178113 126.719505,38.0170792 C126.325124,38.0148827 126.027142,37.8909065 125.824339,37.6436863 C125.622023,37.3964661 125.520743,37.037472 125.520011,36.5652399 M127.689595,36.2523708 L125.520011,36.2523708 C125.530261,36.0810494 125.544172,35.9495077 125.561743,35.858722 C125.579803,35.7674482 125.609333,35.6666565 125.649601,35.5565911 C125.733065,35.3606208 125.858505,35.2088232 126.027142,35.1014423 C126.195047,34.9940613 126.387601,34.9396387 126.604559,34.9381744 C126.821517,34.9396387 127.014071,34.9940613 127.181976,35.1014423 C127.350612,35.2088232 127.476053,35.3606208 127.559273,35.5565911 C127.607107,35.6607994 127.637857,35.7608589 127.652743,35.8562815 C127.668118,35.9514601 127.680321,36.0830018 127.689595,36.2523708" id="Fill-21" fill="#FFFFFF" mask="url(#mask-4)"></path>
                        <path d="M138.294611,38.3225536 L138.676545,38.3225536 L138.676545,35.9696905 C138.675325,35.5330893 138.54842,35.1914226 138.294611,34.9456667 C138.17576,34.8341369 138.035432,34.7482321 137.872896,34.6872202 C137.710361,34.6259643 137.527569,34.5952143 137.324277,34.5944821 C137.048992,34.5952143 136.80592,34.6528095 136.595063,34.767756 C136.384938,34.8817262 136.2102,35.0484107 136.072069,35.2665893 C135.959807,35.0484107 135.803861,34.8817262 135.603254,34.767756 C135.402402,34.6528095 135.163968,34.5952143 134.888194,34.5944821 C134.436218,34.5944821 134.072099,34.7548214 133.795593,35.0759881 L133.795593,34.640119 L133.406093,34.640119 L133.406093,38.3225536 L133.795593,38.3225536 L133.795593,36.0382679 C133.797545,35.6848869 133.887599,35.41375 134.066242,35.2251012 C134.244152,35.0357202 134.500646,34.9402976 134.83426,34.9381012 C135.167385,34.9395655 135.419974,35.034256 135.591783,35.2214405 C135.763105,35.4096012 135.849498,35.6814702 135.85023,36.0382679 L135.85023,38.3225536 L136.23973,38.3225536 L136.23973,35.9696905 C136.243146,35.649256 136.335885,35.398131 136.518432,35.2160714 C136.701712,35.034256 136.955033,34.9415179 137.27864,34.9381012 C137.611765,34.9395655 137.864111,35.034256 138.03592,35.2214405 C138.207974,35.4096012 138.293879,35.6814702 138.294611,36.0382679 L138.294611,38.3225536" id="Fill-22" fill="#FFFFFF" mask="url(#mask-4)"></path>
                        <path d="M144.35219,36.5652399 L146.911273,36.5652399 L146.911273,36.3900137 C146.907857,35.8206506 146.777535,35.3801446 146.520309,35.0677637 C146.263815,34.756847 145.902624,34.5984601 145.437226,34.5943113 C144.971339,34.5984601 144.609904,34.7644125 144.35341,35.0911923 C144.096428,35.417728 143.966595,35.8809304 143.96269,36.4812875 C143.964642,37.0984839 144.098136,37.5665673 144.36488,37.8860256 C144.630892,38.205728 145.018928,38.3667994 145.528499,38.3682637 C145.827946,38.3682637 146.079315,38.3204304 146.282118,38.2259839 C146.484678,38.1312935 146.676743,37.9902339 146.857583,37.8028054 L146.56741,37.5738887 C146.415613,37.7295911 146.26113,37.8423411 146.105428,37.9128708 C145.949482,37.9834006 145.764982,38.0178113 145.55144,38.0170792 C145.157303,38.0148827 144.859077,37.8909065 144.657005,37.6436863 C144.454934,37.3964661 144.352678,37.037472 144.35219,36.5652399 M146.521773,36.2523708 L144.35219,36.2523708 C144.362928,36.0810494 144.376351,35.9495077 144.39441,35.858722 C144.411982,35.7674482 144.441511,35.6666565 144.482511,35.5565911 C144.565732,35.3606208 144.691172,35.2088232 144.859077,35.1014423 C145.027714,34.9940613 145.220511,34.9396387 145.437226,34.9381744 C145.654184,34.9396387 145.846249,34.9940613 146.014642,35.1014423 C146.182547,35.2088232 146.308964,35.3606208 146.392184,35.5565911 C146.439041,35.6607994 146.470035,35.7608589 146.48541,35.8562815 C146.500297,35.9514601 146.512255,36.0830018 146.521773,36.2523708" id="Fill-23" fill="#FFFFFF" mask="url(#mask-4)"></path>
                        <path d="M154.842894,37.2757113 C154.836305,36.9252589 154.733317,36.6826756 154.53393,36.5484494 C154.334543,36.4134911 154.078049,36.3356399 153.765668,36.3134315 L153.170192,36.2597411 C152.911745,36.2348482 152.722364,36.1738363 152.601317,36.0764613 C152.480513,35.9790863 152.420721,35.834122 152.421454,35.6413244 C152.422674,35.4109435 152.502721,35.2349851 152.662573,35.1141815 C152.821692,34.9926458 153.054757,34.9316339 153.361525,34.9309018 C153.765668,34.932122 154.109531,35.0363304 154.392382,35.2437708 L154.652293,34.9838601 C154.487073,34.8608601 154.294275,34.7656815 154.075364,34.6978363 C153.856454,34.6299911 153.618751,34.5958244 153.361525,34.5943601 C152.95543,34.5977768 152.634995,34.6924673 152.399977,34.8772113 C152.16496,35.0617113 152.044888,35.3169851 152.040007,35.6413244 C152.038787,36.2214256 152.408031,36.5425923 153.147251,36.6036042 L153.758346,36.6572946 C154.001418,36.6821875 154.180061,36.7431994 154.293055,36.8405744 C154.406293,36.9379494 154.462912,37.0829137 154.461448,37.2757113 C154.460227,37.5241518 154.366757,37.7108482 154.179573,37.8362887 C153.992876,37.9619732 153.71759,38.0244494 153.353471,38.0244494 C152.833162,38.0232292 152.430971,37.8726518 152.1469,37.5739375 L151.879424,37.8411696 C152.065632,38.0203006 152.279906,38.1525744 152.523465,38.2392113 C152.768001,38.3258482 153.049388,38.3688006 153.368846,38.3683166 C153.828144,38.3648958 154.187382,38.2667887 154.446561,38.0739911 C154.706471,37.8814375 154.838257,37.6154256 154.842894,37.2757113" id="Fill-24" fill="#FFFFFF" mask="url(#mask-4)"></path>
                        <path d="M162.245468,38.3225536 L162.634978,38.3225536 L162.634978,35.8017857 C162.636189,35.41375 162.520754,35.116256 162.286957,34.9088155 C162.054135,34.701131 161.694165,34.5964345 161.206558,34.5944821 C160.907843,34.5910655 160.655254,34.6308452 160.448546,34.7138214 C160.241838,34.7972857 160.060998,34.9456667 159.90798,35.1599405 L160.190832,35.4042321 C160.30407,35.2377917 160.43854,35.1182083 160.59229,35.044994 C160.74726,34.9725119 160.951528,34.936881 161.206558,34.9381012 C161.580683,34.9388333 161.848647,35.0154643 162.009718,35.1684821 C162.17079,35.3210119 162.249617,35.5445595 162.245468,35.8401012 L162.245468,36.2522976 L161.05354,36.2522976 C160.649153,36.25425 160.335064,36.3469881 160.111516,36.531 C159.887236,36.7142798 159.773754,36.9754107 159.770338,37.3139048 C159.77107,37.4535 159.793278,37.5852857 159.838183,37.7102381 C159.883088,37.8349464 159.949713,37.9425714 160.038302,38.032625 C160.152272,38.1534286 160.294064,38.2400655 160.462701,38.2918036 C160.631826,38.3440298 160.851468,38.3696548 161.122605,38.3681905 C161.377147,38.370875 161.589957,38.3413452 161.761278,38.2796012 C161.932599,38.2178571 162.093671,38.109744 162.245468,37.955994 L162.245468,38.3225536 Z M162.245468,36.5651622 L162.245468,37.0393512 C162.245468,37.376381 162.176159,37.6106667 162.039248,37.7417202 C161.905022,37.8639881 161.760546,37.9425714 161.606796,37.9774702 C161.452314,38.0128571 161.291242,38.0284762 161.122605,38.0243274 C160.78826,38.0250595 160.543968,37.9667321 160.389486,37.8486131 C160.234272,37.7309821 160.157641,37.5503869 160.159838,37.3065833 C160.159838,36.8111667 160.473439,36.5639464 161.099909,36.5651622 L162.245468,36.5651622 L162.245468,36.5651622 Z" id="Fill-25" fill="#FFFFFF" mask="url(#mask-4)"></path>
                    </g>
                </g>
            </g>
        </g>
    </g>
</svg>